<svg xmlns="http://www.w3.org/2000/svg" viewBox="0 0 331.14 136.33"><path d="M140.11,461.5a96.19,96.19,0,0,0,19-6.34,92.13,92.13,0,0,0,17.4-10.26,205.1,205.1,0,0,0,22-18.77q10.53-10.32,20.84-22.53t20.78-26.23q10.47-14,22-29.88a7.35,7.35,0,0,0,1.8-3.44,3.28,3.28,0,0,0-.64-2.59,4.86,4.86,0,0,0-2.54-1.53,11.16,11.16,0,0,0-4-.26q-5,.52-10.84,1.53t-12.16,2.59q-6.3,1.59-12.59,3.65a108.45,108.45,0,0,0-12,4.71,83.65,83.65,0,0,0-10.52,5.76,40.87,40.87,0,0,0-8.09,6.72,12.45,12.45,0,0,0-3.49,5.55,11.78,11.78,0,0,0-.11,5.66,19.46,19.46,0,0,0,2.38,5.76,67.44,67.44,0,0,0,4,5.87l-10.69-4.34a19.74,19.74,0,0,1-3.38-8.62,15.31,15.31,0,0,1,1.06-7.61,21.11,21.11,0,0,1,4.7-6.77,47.36,47.36,0,0,1,7.57-6.08h-.11a112.89,112.89,0,0,1,14-7.51,174.82,174.82,0,0,1,17.29-6.87,166,166,0,0,1,18-5,77.82,77.82,0,0,1,16.39-1.95q10.89,0,13.54,4.86T268,351.72q-6,8.56-12.79,17.93t-14.12,18.93q-7.35,9.57-15.18,19t-16.18,18q-8.35,8.58-17.08,16.08a152.48,152.48,0,0,1-17.72,13.22,105.89,105.89,0,0,1-15.49,7.83,108,108,0,0,1-12.9,4.28,63.39,63.39,0,0,1-9.26,1.75c-2.4.21-3.91.31-4.55.31Z" transform="translate(-132.7 -332.69)" style="fill:#fff"/><path d="M259.51,410.74h-1.05a5,5,0,0,0-1,.1l-1.9.06c-1,0-1.69.05-2.12.05l1.91-2.75a2.85,2.85,0,0,1,.53-.74l.53-.53a22.83,22.83,0,0,0-4.5,3.38,53.4,53.4,0,0,0-5.55,5.93,43.48,43.48,0,0,0-4.76,7.19,16.63,16.63,0,0,0-2.12,7.19q-.21,1.8,7.51-.95h-.1a94,94,0,0,0,10.89-5.61q5.51-3.27,10.79-7l1.58,2.23L272,422q-5.49,4-10.89,7.3a110,110,0,0,1-11.42,6q-6.57,3.08-10.79,3.07a6.53,6.53,0,0,1-4.55-1.37,6.29,6.29,0,0,1-1.9-3.49,12.68,12.68,0,0,1,0-4.6,28.36,28.36,0,0,1,1.16-4.6l-.1.1a33.87,33.87,0,0,1,2.9-6.08,45.32,45.32,0,0,1,4.92-6.82,62.18,62.18,0,0,1,6-5.82,47.94,47.94,0,0,1,6.4-4.65,24.66,24.66,0,0,1,6-2.7,6.52,6.52,0,0,1,4.76.16c.71.56.94,1.52.69,2.86a17.17,17.17,0,0,1-1.37,4.12,19.21,19.21,0,0,1-2.28,3.7C260.68,410.21,260,410.74,259.51,410.74Z" transform="translate(-132.7 -332.69)" style="fill:#fff"/><path d="M298.43,398.26a5.71,5.71,0,0,1,3.28,1.95,5.56,5.56,0,0,1,1,3.34,13.2,13.2,0,0,1-1.21,5.23,33.06,33.06,0,0,1-3.07,5.5,55.59,55.59,0,0,1-4,5.13q-2.12,2.43-3.8,4.13a3.48,3.48,0,0,0,.21,1.85c.21.38.77.3,1.69-.27a30.39,30.39,0,0,0,4.34-2.7c1.27-.95,2.39-1.77,3.38-2.48l3.6-2.43.63,6.77-2.54,1.9q-1.8,1.38-4.28,3a41.49,41.49,0,0,1-4.92,2.81,7.33,7.33,0,0,1-3.38.95,5,5,0,0,1-3.12-1,8.3,8.3,0,0,1-2.28-2.8c-1.27,1.06-2.68,2.13-4.23,3.23a47.22,47.22,0,0,1-4.65,2.9,34.7,34.7,0,0,1-4.6,2.12,12,12,0,0,1-4.18.85,5.42,5.42,0,0,1-4.18-1.8,6.36,6.36,0,0,1-1.64-4.44,15.15,15.15,0,0,1,1-5,31.94,31.94,0,0,1,2.8-5.76,55.94,55.94,0,0,1,4.23-6,62,62,0,0,1,5.18-5.66,63.67,63.67,0,0,1,6.3-5.12,45.2,45.2,0,0,1,6.61-4,27,27,0,0,1,6.34-2.22A11.85,11.85,0,0,1,298.43,398.26Zm-7.82,13.32c.21.5.38,1,.52,1.38a33.94,33.94,0,0,0,3.07-4.65q1.49-3.49.58-4.08c-.6-.38-2.13,0-4.6,1.22A40.09,40.09,0,0,0,279.61,413a80.26,80.26,0,0,0-9.1,10.84A26.71,26.71,0,0,0,267.6,429c-.39,1.12-.39,1.85,0,2.16s1.1.29,2.12-.1a22.78,22.78,0,0,0,3.54-1.8,47.63,47.63,0,0,0,4.23-2.91q2.22-1.69,4.13-3.38c-.08-.57-.13-1.11-.16-1.64s0-1.08,0-1.64a15.25,15.25,0,0,1,1.85-7.46,7.32,7.32,0,0,1,1.85-2.27,3.35,3.35,0,0,1,2.11-.85c1.34,0,2.47.78,3.39,2.33Z" transform="translate(-132.7 -332.69)" style="fill:#fff"/><path d="M298.75,421.53q2.85-2.22,4.65-3.65c1.2-.95,2.26-1.84,3.18-2.65s1.81-1.64,2.69-2.48,1.92-1.87,3.12-3.07q2.12-2.43,4-5a54.94,54.94,0,0,1,4.23-5c.64-.64,1.39-1.32,2.28-2.06a20.82,20.82,0,0,1,2.64-1.91,8.21,8.21,0,0,1,2.59-1,2.33,2.33,0,0,1,2.12.47h-.11a2,2,0,0,1,.79,1.22,5,5,0,0,1,.06,2.22,9.33,9.33,0,0,1-1.11,3,17.9,17.9,0,0,1-2.7,3.54h.11q-1.8,2.12-3.34,3.65c-1,1-1.92,1.85-2.69,2.49a18.25,18.25,0,0,0-1.43,1.53,1.73,1.73,0,0,0-.27,1.32,7.64,7.64,0,0,0,.85,2,18.62,18.62,0,0,0,2.54,3.39,21.92,21.92,0,0,1,1.74,2.43,6.93,6.93,0,0,1,1,2.75l2.11-1.38h-.1l9.09-6.45.64,6.77-2.54,1.8c-1.41,1-3.05,2.2-4.92,3.65s-3.84,2.84-5.92,4.18a46.19,46.19,0,0,1-6.35,3.43,15.07,15.07,0,0,1-6.08,1.43,12.74,12.74,0,0,1-6.66-1.9,9.81,9.81,0,0,1-1.11-1.06,6.27,6.27,0,0,1-1.16-1.8,5.83,5.83,0,0,1-.53-2.22,3.4,3.4,0,0,1,.9-2.33,3.5,3.5,0,0,1,1.32-.74,4.69,4.69,0,0,1,2-.21,6.89,6.89,0,0,1,2.27.64,5.85,5.85,0,0,1,2.12,1.69,3.1,3.1,0,0,0,2.48,1.32,5.09,5.09,0,0,0,2.86-.74,5.52,5.52,0,0,0,2.06-2.17,3.48,3.48,0,0,0,.32-2.75,13.34,13.34,0,0,0-2.38-4.18,25.88,25.88,0,0,1-2.81-4.17l.11-.11-3.6,3.17c-1,.85-2.08,1.7-3.27,2.54s-2.93,2.05-5.19,3.6Z" transform="translate(-132.7 -332.69)" style="fill:#fff"/><path d="M338.1,429.56a25.32,25.32,0,0,0,2.59-1.53c1-.67,2.1-1.39,3.23-2.17s2.27-1.57,3.44-2.38l3.22-2.27c.78-.56,1.75-1.22,2.91-2s2-1.28,2.49-1.64l.64,6.77c-.64.42-1.4,1-2.28,1.64l-2.7,2.06c-2.26,1.77-4.72,3.56-7.4,5.4a36.62,36.62,0,0,1-7,3.91,6.38,6.38,0,0,1-4,.16,4.62,4.62,0,0,1-2.44-2,6.87,6.87,0,0,1-.89-3.38,14,14,0,0,1,.47-4,42.47,42.47,0,0,1,3.49-8.46q2.33-4.34,5-8.36t5.39-7.51c1.8-2.32,3.37-4.3,4.71-5.92h9.11a40.86,40.86,0,0,0-2.87,3q-1.8,2-3.86,4.71t-4.29,5.76q-2.22,3.08-4.12,6.19t-3.33,6a30,30,0,0,0-2.07,5.07,1.62,1.62,0,0,0-.1.95Q337.58,429.89,338.1,429.56Zm16.6-45a6.6,6.6,0,0,1,2-4.79,6.82,6.82,0,1,1,9.64,9.64,6.79,6.79,0,0,1-11.61-4.85Z" transform="translate(-132.7 -332.69)" style="fill:#fff"/><path d="M354,420.05a61.8,61.8,0,0,1,3.75-5.35q2.16-2.79,4.55-5.55t4.92-5.29q2.54-2.53,5.07-4.76a11.25,11.25,0,0,1,2-.37,14.27,14.27,0,0,1,2.7-.05,8.35,8.35,0,0,1,2.43.53,1.93,1.93,0,0,1,1.27,1.37,48.78,48.78,0,0,0-5.93,5q-3.06,3-5.81,6.08c-1.84,2.05-3.46,3.93-4.87,5.66s-2.4,3-3,3.86v-.11q-1.8,2.76-3.33,5.56c-1,1.86-1.43,3.22-1.22,4.07.28.28,1.08,0,2.38-1a52.63,52.63,0,0,0,4.82-4q2.85-2.6,6.23-5.87t6.67-6.61q3.27-3.33,6.13-6.35c1.91-2,3.49-3.65,4.76-4.91l2.75-2.86h8.25c-2,2.26-3.88,4.25-5.5,6s-3.12,3.33-4.49,4.81l-3.86,4.12c-1.2,1.27-2.37,2.54-3.49,3.81-.71.92-1.57,2.13-2.6,3.65s-1.94,3-2.75,4.34a19.41,19.41,0,0,0-1.63,3.27c-.29.81,0,.94.84.37h-.1l17.87-12.05.63,6.77L392,425.33l-4.34,3.07q-2.54,1.8-5.28,3.54c-1.84,1.17-3.62,2.24-5.35,3.23a27.14,27.14,0,0,1-4.39,2.11c-2.25.78-3.8.81-4.65.11a3.9,3.9,0,0,1-1.27-3.17c0-.35,0-.76.05-1.22a5.73,5.73,0,0,1,.27-1.32c-.85.63-1.75,1.32-2.7,2.06a29,29,0,0,1-3,2.06,17.14,17.14,0,0,1-3.28,1.54,11,11,0,0,1-3.6.58,5.34,5.34,0,0,1-2.22-.48,5.13,5.13,0,0,1-1.8-1.32A7.93,7.93,0,0,1,349.3,432a14.52,14.52,0,0,1,1.27-5.5A43,43,0,0,1,354,420.05Z" transform="translate(-132.7 -332.69)" style="fill:#fff"/><path d="M436,435a12,12,0,0,1,.74-5.55,36.07,36.07,0,0,1,2.85-6.14,66.17,66.17,0,0,1,3.92-6c1.4-1.94,2.75-3.72,4-5.34q-5.39,4.88-10.41,9.41c-3.35,3-6.35,5.73-9,8.1l-6.51,5.81q-2.53,2.28-2.85,2.49v-.11a3,3,0,0,1-2.33.48,3.5,3.5,0,0,1-2-1.22,4.26,4.26,0,0,1-.95-2.27,4.16,4.16,0,0,1,.69-2.7q3.92-5.07,7.3-10.42t7-10.73q-7.83,6.76-15.29,14.17t-16,14.49a2.76,2.76,0,0,1-3-.27,3.28,3.28,0,0,1-1.48-2.9q1.69-3.6,3.75-7.56t4.08-7.57l2.32-4.12q-1.69,1.49-4.6,3.7t-8.41,6.24l-1.37-6.45a102,102,0,0,0,13.27-11.05q5-5.13,8.3-8.84v.11a14.59,14.59,0,0,1,3.6-3.49,5.54,5.54,0,0,1,2.64-.85,2.57,2.57,0,0,1,2.65,3.71,18.48,18.48,0,0,1-.79,2.27,15.49,15.49,0,0,1-1,2q-1.8,3.48-3.6,7.14t-4.12,7.77q2.53-2.43,5.39-5.08c1.91-1.76,3.79-3.45,5.66-5.07s3.65-3.12,5.34-4.5,3.18-2.48,4.44-3.33a13.6,13.6,0,0,1,2.65-1.16,7.94,7.94,0,0,1,3.12-.43,4.36,4.36,0,0,1,2.59,1,3.64,3.64,0,0,1,1.06,2.91,13.34,13.34,0,0,1-1,4q-1.17,2.12-2.49,4.12c-.88,1.34-1.82,2.72-2.8,4.12l2.75-2.64,3.75-3.75q2.28-2.28,4.87-4.45a36.44,36.44,0,0,1,5.29-3.7,10.56,10.56,0,0,1,5.23-1.53,4.34,4.34,0,0,1,2.91.95,3.85,3.85,0,0,1,1.11,3.07,10.07,10.07,0,0,1-.85,3.7,35.46,35.46,0,0,1-3.59,5.66q-2.22,2.91-4.44,5.92t-4.08,6a19.55,19.55,0,0,0-2.48,5.76,14,14,0,0,0,1.9-1.16c1.06-.7,2.45-1.64,4.18-2.8s3.72-2.52,6-4.08l7.29-5,.53,6.77c-.35.29-.84.66-1.48,1.11l-1.8,1.33c-1.27.91-2.68,1.92-4.23,3s-3.12,2.17-4.7,3.23-3.16,2-4.71,2.9a23.4,23.4,0,0,1-4.23,2,6.08,6.08,0,0,1-3.65-.32A5.09,5.09,0,0,1,436,435Z" transform="translate(-132.7 -332.69)" style="fill:#fff"/></svg>
